<svg xmlns="http://www.w3.org/2000/svg" viewBox="0 0 397.7 311.7" role="img" aria-labelledby="title">
  <title id="title">Solana</title>
  <defs>
    <linearGradient id="solana-a" x1="360.88" y1="351.46" x2="141.21" y2="-69.29" gradientUnits="userSpaceOnUse">
      <stop offset="0" stop-color="#9945FF"/>
      <stop offset="0.5" stop-color="#8752F3"/>
      <stop offset="1" stop-color="#14F195"/>
    </linearGradient>
  </defs>
  <path fill="url(#solana-a)" d="M64.6 237.9a12.8 12.8 0 0 1 9.1-3.8h317.4c5.7 0 8.5 6.9 4.5 10.9l-62.7 62.7a12.8 12.8 0 0 1-9.1 3.8H6.4c-5.7 0-8.5-6.9-4.5-10.9l62.7-62.7Z"/>
  <path fill="url(#solana-a)" d="M64.6 3.8A12.8 12.8 0 0 1 73.7 0h317.4c5.7 0 8.5 6.9 4.5 10.9l-62.7 62.7a12.8 12.8 0 0 1-9.1 3.8H6.4c-5.7 0-8.5-6.9-4.5-10.9L64.6 3.8Z"/>
  <path fill="url(#solana-a)" d="M332.9 120.8a12.8 12.8 0 0 0-9.1-3.8H6.4c-5.7 0-8.5 6.9-4.5 10.9l62.7 62.7a12.8 12.8 0 0 0 9.1 3.8h317.4c5.7 0 8.5-6.9 4.5-10.9l-62.7-62.7Z"/>
</svg>
